<?xml version="1.0" encoding="UTF-8"?>
<svg id="Layer_1" data-name="Layer 1" xmlns="http://www.w3.org/2000/svg" viewBox="0 0 16 16">
  <defs>
    <style>
      .cls-1 {
        fill: #262626;
      }
    </style>
  </defs>
  <path class="cls-1" d="M8,0C3.58,0,0,3.58,0,8s3.58,8,8,8,8-3.58,8-8S12.42,0,8,0Zm-.08,6.33c-.11,.37-.2,.77-.28,1.18-.08,.41-.13,.82-.17,1.23-.04,.4-.06,.77-.06,1.09v.33c0,.11,0,.23,.01,.36-.06,0-.14,0-.23-.02-.09-.02-.18-.04-.26-.07-.08-.03-.16-.06-.23-.09-.07-.03-.12-.07-.14-.11,0-.06,0-.13,0-.2v-.2c0-.51,.04-1.05,.11-1.61,.07-.56,.2-1.16,.37-1.81,.02-.06,.04-.15,.06-.26,.02-.11,.05-.22,.07-.34-.13,.06-.27,.19-.44,.37-.16,.18-.33,.4-.49,.66-.17,.26-.33,.55-.49,.86-.16,.32-.31,.64-.44,.96-.13,.33-.24,.65-.33,.97-.09,.32-.14,.62-.16,.89,0,0-.02,0-.03,0h-.05c-.06,0-.14-.01-.22-.03-.09-.02-.17-.05-.25-.08-.08-.03-.15-.06-.21-.1-.06-.04-.09-.07-.11-.1,0-.06,0-.13,0-.2v-.2c0-.51,.04-1.05,.11-1.61,.07-.56,.2-1.16,.37-1.81,.02-.06,.04-.15,.06-.24,.02-.1,.04-.21,.07-.32-.11,.09-.24,.23-.39,.41s-.31,.41-.48,.67c-.17,.26-.33,.54-.5,.85s-.32,.62-.46,.94c-.14,.32-.26,.63-.35,.94-.1,.31-.16,.6-.18,.87-.22-.06-.37-.13-.46-.19-.08-.06-.13-.14-.13-.23,0-.08,.03-.2,.08-.35s.12-.33,.21-.54c.09-.21,.2-.44,.34-.69,.13-.25,.28-.53,.44-.82,.18-.33,.36-.65,.54-.94,.18-.29,.35-.56,.52-.8,.17-.24,.33-.44,.5-.62s.32-.31,.48-.4c.06,0,.15,.02,.26,.05,.11,.03,.21,.07,.32,.12,.1,.05,.19,.09,.27,.14s.12,.09,.13,.12c-.06,.13-.14,.32-.23,.58-.09,.26-.17,.55-.26,.87-.09,.33-.17,.67-.25,1.03-.08,.36-.14,.71-.19,1.05,.11-.25,.23-.51,.37-.79,.14-.27,.29-.54,.44-.81,.16-.27,.31-.53,.48-.78,.16-.25,.32-.48,.48-.69,.16-.21,.3-.39,.44-.55,.13-.16,.25-.27,.36-.34,.06,0,.15,.02,.26,.05s.21,.07,.32,.12c.1,.05,.19,.09,.27,.14,.08,.05,.12,.09,.13,.12-.15,.26-.27,.58-.38,.95Zm5.23-.25c-.07,.13-.16,.22-.27,.28-.09-.12-.2-.23-.34-.32-.13-.09-.28-.16-.44-.22-.16-.06-.32-.1-.49-.13-.17-.03-.33-.04-.49-.04s-.31,.01-.45,.04c-.14,.03-.26,.06-.37,.1s-.19,.1-.25,.16c-.06,.06-.09,.14-.09,.22,.01,.1,.07,.2,.19,.31,.11,.1,.24,.2,.4,.3,.16,.1,.34,.2,.53,.29,.19,.1,.39,.19,.57,.27,.23,.11,.43,.21,.6,.31,.17,.09,.31,.2,.42,.31,.11,.11,.19,.24,.25,.38s.08,.31,.08,.51c0,.23-.04,.45-.12,.66-.08,.2-.19,.38-.34,.53-.15,.15-.33,.27-.54,.35-.21,.08-.45,.13-.71,.13s-.53-.04-.83-.12c-.3-.08-.57-.18-.83-.32-.26-.14-.47-.29-.65-.47-.17-.18-.26-.36-.26-.56,0-.09,.03-.21,.08-.35,.05-.14,.15-.29,.28-.45,.01,.14,.09,.3,.22,.49,.13,.19,.34,.36,.61,.52,.25,.15,.51,.25,.78,.32,.27,.07,.52,.1,.75,.1,.26,0,.46-.03,.62-.1,.16-.06,.29-.14,.38-.23,.09-.09,.16-.18,.19-.27s.06-.16,.06-.22c0-.09-.05-.18-.13-.26-.08-.08-.19-.17-.32-.25-.13-.08-.29-.16-.47-.24-.18-.08-.36-.17-.56-.25-.29-.13-.54-.25-.74-.36-.21-.11-.38-.23-.51-.34-.13-.12-.23-.24-.29-.37-.06-.13-.09-.27-.09-.44,0-.26,.08-.5,.23-.73,.15-.23,.38-.4,.67-.52,.15-.06,.3-.11,.47-.14,.17-.03,.33-.04,.49-.04,.3,0,.6,.04,.89,.12,.29,.08,.58,.19,.86,.32,.01,.08,.02,.13,.03,.16,0,.03,.01,.07,.01,.12,0,.15-.03,.29-.1,.42Z"/>
</svg>